<svg width="141" height="53" viewBox="0 0 141 53" fill="none" xmlns="http://www.w3.org/2000/svg">
<g filter="url(#filter0_d_0_8)">
<rect x="1.5" width="138" height="48" rx="24" fill="#B65A0F"/>
</g>
<path d="M48.1628 21.5078C48.1031 20.9496 47.8517 20.5149 47.4085 20.2038C46.9696 19.8928 46.3986 19.7372 45.6955 19.7372C45.2012 19.7372 44.7772 19.8118 44.4235 19.9609C44.0698 20.1101 43.7992 20.3125 43.6117 20.5682C43.4242 20.8239 43.3283 21.1158 43.324 21.4439C43.324 21.7166 43.3858 21.9531 43.5094 22.1534C43.6372 22.3537 43.8098 22.5241 44.0272 22.6648C44.2445 22.8011 44.4852 22.9162 44.7495 23.0099C45.0137 23.1037 45.28 23.1825 45.5485 23.2464L46.7757 23.5533C47.27 23.6683 47.7452 23.8239 48.2012 24.0199C48.6614 24.2159 49.0726 24.4631 49.4348 24.7614C49.8013 25.0597 50.0911 25.4197 50.3041 25.8416C50.5172 26.2635 50.6237 26.7578 50.6237 27.3246C50.6237 28.0916 50.4277 28.767 50.0357 29.3509C49.6436 29.9304 49.0769 30.3842 48.3354 30.7124C47.5982 31.0362 46.7054 31.1982 45.6571 31.1982C44.6387 31.1982 43.7544 31.0405 43.0044 30.7251C42.2587 30.4098 41.6749 29.9496 41.253 29.3445C40.8354 28.7393 40.6095 28.0021 40.5754 27.1328H42.9085C42.9426 27.5888 43.0833 27.968 43.3304 28.2706C43.5776 28.5732 43.8993 28.799 44.2956 28.9482C44.6962 29.0973 45.1436 29.1719 45.6379 29.1719C46.1536 29.1719 46.6053 29.0952 46.9931 28.9418C47.3851 28.7841 47.6919 28.5668 47.9135 28.2898C48.1351 28.0085 48.248 27.6804 48.2523 27.3054C48.248 26.9645 48.1479 26.6832 47.9519 26.4616C47.7558 26.2358 47.481 26.0483 47.1273 25.8991C46.7779 25.7457 46.3688 25.6094 45.9 25.4901L44.4107 25.1065C43.3325 24.8295 42.4803 24.4098 41.8539 23.8473C41.2317 23.2805 40.9206 22.5284 40.9206 21.5909C40.9206 20.8196 41.1294 20.1442 41.547 19.5646C41.9689 18.9851 42.5421 18.5355 43.2665 18.2159C43.9909 17.892 44.8112 17.7301 45.7274 17.7301C46.6564 17.7301 47.4703 17.892 48.1692 18.2159C48.8723 18.5355 49.4242 18.9808 49.8247 19.5518C50.2253 20.1186 50.432 20.7706 50.4448 21.5078H48.1628ZM52.8826 19.897V17.9091H63.3272V19.897H59.2811V31H56.9288V19.897H52.8826ZM66.1598 31H63.6286L68.2372 17.9091H71.1648L75.7798 31H73.2486L69.7521 20.5938H69.6499L66.1598 31ZM66.2429 25.8672H73.1463V27.772H66.2429V25.8672ZM78.2241 31V17.9091H83.1332C84.1389 17.9091 84.9826 18.0838 85.6644 18.4332C86.3505 18.7827 86.8683 19.2727 87.2177 19.9034C87.5714 20.5298 87.7482 21.2607 87.7482 22.0959C87.7482 22.9354 87.5693 23.6641 87.2113 24.282C86.8576 24.8956 86.3356 25.3707 85.6453 25.7074C84.9549 26.0398 84.1069 26.206 83.1012 26.206H79.6048V24.2372H82.7816C83.3697 24.2372 83.8512 24.1562 84.2262 23.9943C84.6012 23.8281 84.8782 23.5874 85.0572 23.272C85.2404 22.9524 85.332 22.5604 85.332 22.0959C85.332 21.6314 85.2404 21.2351 85.0572 20.907C84.8739 20.5746 84.5948 20.3232 84.2198 20.1527C83.8448 19.978 83.3612 19.8906 82.7688 19.8906H80.5955V31H78.2241ZM84.9869 25.0682L88.2276 31H85.5813L82.3981 25.0682H84.9869ZM90.0758 19.897V17.9091H100.52V19.897H96.4743V31H94.122V19.897H90.0758Z" fill="white"/>
<defs>
<filter id="filter0_d_0_8" x="0.5" y="0" width="140" height="53" filterUnits="userSpaceOnUse" color-interpolation-filters="sRGB">
<feFlood flood-opacity="0" result="BackgroundImageFix"/>
<feColorMatrix in="SourceAlpha" type="matrix" values="0 0 0 0 0 0 0 0 0 0 0 0 0 0 0 0 0 0 127 0" result="hardAlpha"/>
<feMorphology radius="1" operator="dilate" in="SourceAlpha" result="effect1_dropShadow_0_8"/>
<feOffset dy="4"/>
<feComposite in2="hardAlpha" operator="out"/>
<feColorMatrix type="matrix" values="0 0 0 0 0.552077 0 0 0 0 0.272304 0 0 0 0 0.0355727 0 0 0 1 0"/>
<feBlend mode="normal" in2="BackgroundImageFix" result="effect1_dropShadow_0_8"/>
<feBlend mode="normal" in="SourceGraphic" in2="effect1_dropShadow_0_8" result="shape"/>
</filter>
</defs>
</svg>
